name rise32.9588peak41.5061fall63.4684.mot
datacolumns 19
datarows 27
range 7.44997000000000 7.49330500000000
endheader
time	ground_force1_vx	ground_force1_vy	ground_force1_vz	ground_force1_px	ground_force1_py	ground_force1_pz	ground_force2_vx	ground_force2_vy	ground_force2_vz	ground_force2_px	ground_force2_py	ground_force2_pz	ground_torque1_x	ground_torque1_y	ground_torque1_z	ground_torque2_x	ground_torque2_y	ground_torque2_z	
7.44997000000000	-27.51135700000000	813.68558700000006	51.14478000000000	0.14030400000000	0.00000000000000	0.09845500000000	0.00000000000000	0.00000000000000	0.00000000000000	0.00000000000000	0.00000000000000	0.00000000000000	0.00000000000000	20.09344300000000	0.00000000000000	0.00000000000000	0.00000000000000	0.00000000000000	
7.45163600000000	-28.27599500000000	812.49527799999998	51.03954500000000	0.13913300000000	0.00000000000000	0.09835000000000	0.00000000000000	0.00000000000000	0.00000000000000	0.00000000000000	0.00000000000000	0.00000000000000	0.00000000000000	20.05684000000000	0.00000000000000	0.00000000000000	0.00000000000000	0.00000000000000	
7.45330500000000	-29.05926400000000	811.19378800000004	50.91988100000000	0.13796000000000	0.00000000000000	0.09824400000000	0.00000000000000	0.00000000000000	0.00000000000000	0.00000000000000	0.00000000000000	0.00000000000000	0.00000000000000	20.02116500000000	0.00000000000000	0.00000000000000	0.00000000000000	0.00000000000000	
7.45497000000000	-29.86093400000000	809.77845900000000	50.78530700000000	0.13678800000000	0.00000000000000	0.09813600000000	0.00000000000000	0.00000000000000	0.00000000000000	0.00000000000000	0.00000000000000	0.00000000000000	0.00000000000000	19.98644200000000	0.00000000000000	0.00000000000000	0.00000000000000	0.00000000000000	
7.45664200000000	-30.68070900000000	808.24657200000001	50.63535800000000	0.13561600000000	0.00000000000000	0.09802700000000	0.00000000000000	0.00000000000000	0.00000000000000	0.00000000000000	0.00000000000000	0.00000000000000	0.00000000000000	19.95268500000000	0.00000000000000	0.00000000000000	0.00000000000000	0.00000000000000	
7.45830200000000	-31.51822200000000	806.59534499999995	50.46958300000000	0.13444700000000	0.00000000000000	0.09791700000000	0.00000000000000	0.00000000000000	0.00000000000000	0.00000000000000	0.00000000000000	0.00000000000000	0.00000000000000	19.91989500000000	0.00000000000000	0.00000000000000	0.00000000000000	0.00000000000000	
7.45996900000000	-32.37303200000000	804.82193700000005	50.28754400000000	0.13328200000000	0.00000000000000	0.09780500000000	0.00000000000000	0.00000000000000	0.00000000000000	0.00000000000000	0.00000000000000	0.00000000000000	0.00000000000000	19.88806300000000	0.00000000000000	0.00000000000000	0.00000000000000	0.00000000000000	
7.46164200000000	-33.24462400000000	802.92345100000000	50.08882600000000	0.13212200000000	0.00000000000000	0.09769100000000	0.00000000000000	0.00000000000000	0.00000000000000	0.00000000000000	0.00000000000000	0.00000000000000	0.00000000000000	19.85716400000000	0.00000000000000	0.00000000000000	0.00000000000000	0.00000000000000	
7.46330300000000	-34.13241000000000	800.89693499999998	49.87303100000000	0.13096700000000	0.00000000000000	0.09757500000000	-1.08556600000000	3.54611100000000	0.56317600000000	0.00000000000000	0.00000000000000	0.00000000000000	0.00000000000000	19.82716500000000	0.00000000000000	0.00000000000000	0.13564400000000	0.00000000000000	
7.46497600000000	-35.03572100000000	798.73938499999997	49.63978200000000	0.12981900000000	0.00000000000000	0.09745800000000	-1.72049500000000	7.18966300000000	0.98195300000000	0.00000000000000	0.00000000000000	0.00000000000000	0.00000000000000	19.79801600000000	0.00000000000000	0.00000000000000	0.24999300000000	0.00000000000000	
7.46664200000000	-35.95381300000000	796.44774900000004	49.38872800000000	0.12867900000000	0.00000000000000	0.09733900000000	-2.43418100000000	11.64095100000000	1.47216800000000	0.00000000000000	0.00000000000000	0.00000000000000	0.00000000000000	19.76965500000000	0.00000000000000	0.00000000000000	0.38628300000000	0.00000000000000	
7.46830800000000	-36.88586000000000	794.01893299999995	49.11953900000000	0.12754700000000	0.00000000000000	0.09721700000000	-3.20335900000000	16.86640000000000	2.02371800000000	0.00000000000000	0.00000000000000	0.00000000000000	0.00000000000000	19.74200500000000	0.00000000000000	0.00000000000000	0.54244800000000	0.00000000000000	
7.46997600000000	-37.83096000000000	791.44980399999997	48.83191500000000	0.12642600000000	0.00000000000000	0.09709400000000	-3.99923800000000	22.79834800000000	2.62261400000000	0.00000000000000	0.00000000000000	0.00000000000000	0.00000000000000	19.71497600000000	0.00000000000000	0.00000000000000	0.71534200000000	0.00000000000000	
7.47164400000000	-38.78812600000000	788.73719800000003	48.52558200000000	0.12531500000000	0.00000000000000	0.09696900000000	-4.78933100000000	29.34033500000000	3.25188600000000	0.30293400000000	0.00000000000000	-0.06975100000000	0.00000000000000	19.68846200000000	0.00000000000000	0.00000000000000	1.55200500000000	0.00000000000000	
7.47330700000000	-39.75629200000000	785.87792400000001	48.20029700000000	0.12421700000000	0.00000000000000	0.09684100000000	-5.53975800000000	36.37543800000000	3.89282200000000	0.31019100000000	0.00000000000000	-0.06990700000000	0.00000000000000	19.66234500000000	0.00000000000000	0.00000000000000	1.91498000000000	0.00000000000000	
7.47497400000000	-40.73431200000000	782.86877200000004	47.85584400000000	0.12313000000000	0.00000000000000	0.09671200000000	-6.21771400000000	43.77653200000000	4.52637800000000	0.31668000000000	0.00000000000000	-0.07004200000000	0.00000000000000	19.63648900000000	0.00000000000000	0.00000000000000	2.28980700000000	0.00000000000000	
7.47663600000000	-41.72095700000000	779.70652199999995	47.49204600000000	0.12205700000000	0.00000000000000	0.09658000000000	-6.79378400000000	51.41701300000000	5.13457100000000	0.32253200000000	0.00000000000000	-0.07016000000000	0.00000000000000	19.61074600000000	0.00000000000000	0.00000000000000	2.66724500000000	0.00000000000000	
7.47830400000000	-42.71491600000000	776.38795100000004	47.10875400000000	0.12099800000000	0.00000000000000	0.09644600000000	-7.24380100000000	59.18054200000000	5.70166600000000	0.32784700000000	0.00000000000000	-0.07026700000000	0.00000000000000	19.58495200000000	0.00000000000000	0.00000000000000	3.03869700000000	0.00000000000000	
7.47997300000000	-43.71480100000000	772.90984500000002	46.70585700000000	0.11995400000000	0.00000000000000	0.09631000000000	-7.55008300000000	66.96875799999999	6.21504000000000	0.33270400000000	0.00000000000000	-0.07036500000000	0.00000000000000	19.55893000000000	0.00000000000000	0.00000000000000	3.39673700000000	0.00000000000000	
7.48164300000000	-44.71914100000000	769.26900799999999	46.28328000000000	0.11892500000000	0.00000000000000	0.09617100000000	-7.70196600000000	74.70640800000000	6.66567900000000	0.33716400000000	0.00000000000000	-0.07045700000000	0.00000000000000	19.53248800000000	0.00000000000000	0.00000000000000	3.73547200000000	0.00000000000000	
7.48330500000000	-45.72639100000000	765.46227099999999	45.84098500000000	0.11791200000000	0.00000000000000	0.09603100000000	-7.69570000000000	82.34377200000000	7.04829400000000	0.34127600000000	0.00000000000000	-0.07054600000000	0.00000000000000	19.50542000000000	0.00000000000000	0.00000000000000	4.05071900000000	0.00000000000000	
7.48497000000000	-46.73492500000000	761.48650999999995	45.37897300000000	0.11691500000000	0.00000000000000	0.09588800000000	-7.53379300000000	89.85658800000000	7.36112500000000	0.34508300000000	0.00000000000000	-0.07063200000000	0.00000000000000	19.47750600000000	0.00000000000000	0.00000000000000	4.34001700000000	0.00000000000000	
7.48664200000000	-47.74304600000000	757.33865700000001	44.89728500000000	0.11593500000000	0.00000000000000	0.09574200000000	-7.22395800000000	97.24388999999999	7.60548100000000	0.34861500000000	0.00000000000000	-0.07071700000000	0.00000000000000	19.44851500000000	0.00000000000000	0.00000000000000	4.60249100000000	0.00000000000000	
7.48830100000000	-48.74898100000000	753.01571200000001	44.39599900000000	0.11497200000000	0.00000000000000	0.09559500000000	-6.77781900000000	104.52431199999999	7.78511500000000	0.35190200000000	0.00000000000000	-0.07080200000000	0.00000000000000	19.41820100000000	0.00000000000000	0.00000000000000	4.83860700000000	0.00000000000000	
7.48997600000000	-49.75089100000000	748.51476300000002	43.87523900000000	0.11402700000000	0.00000000000000	0.09544500000000	-6.20952100000000	111.73141800000001	7.90550400000000	0.35496600000000	0.00000000000000	-0.07088700000000	0.00000000000000	19.38631000000000	0.00000000000000	0.00000000000000	5.04986200000000	0.00000000000000	
7.49164000000000	-50.74686800000000	743.83299999999997	43.33516800000000	0.11309900000000	0.00000000000000	0.09529300000000	-5.53437300000000	118.90863100000000	7.97311900000000	0.35782700000000	0.00000000000000	-0.07097500000000	0.00000000000000	19.35257300000000	0.00000000000000	0.00000000000000	5.23843800000000	0.00000000000000	
7.49330500000000	-51.73494000000000	738.96773499999995	42.77599000000000	0.11218900000000	0.00000000000000	0.09513900000000	-4.76764000000000	126.10422800000001	7.99473800000000	0.36050100000000	0.00000000000000	-0.07106300000000	0.00000000000000	19.31671500000000	0.00000000000000	0.00000000000000	5.40686300000000	0.00000000000000	
